<svg width="36" height="37" viewBox="0 0 36 37" fill="none" xmlns="http://www.w3.org/2000/svg">
<path d="M13.8201 0.279999C12.8123 0.279999 11.9525 0.938518 11.6263 1.84H7.75069C7.67123 1.81909 7.58896 1.81086 7.50694 1.81562C7.48217 1.82254 7.45777 1.83067 7.43381 1.84H2.90006C1.61698 1.84 0.560059 2.89692 0.560059 4.18V31.48C0.560059 32.7631 1.61698 33.82 2.90006 33.82H16.9401C16.9401 35.1031 17.997 36.16 19.2801 36.16H33.3201C34.6031 36.16 35.6601 35.1031 35.6601 33.82V15.88C35.6601 14.5969 34.6031 13.54 33.3201 13.54H27.0801V4.18C27.0801 2.89692 26.0231 1.84 24.7401 1.84H16.0138C15.6876 0.938518 14.8278 0.279999 13.8201 0.279999ZM13.8201 1.84C14.2092 1.84 14.509 2.10789 14.5757 2.47375C14.5573 2.57038 14.5573 2.66962 14.5757 2.76625C14.509 3.13211 14.2092 3.4 13.8201 3.4C13.4048 3.4 13.0755 3.09699 13.0401 2.69312C13.0412 2.66876 13.0412 2.64436 13.0401 2.62C13.0401 2.17998 13.38 1.84 13.8201 1.84ZM2.90006 3.4H6.80006V5.74C6.80006 7.02307 7.85698 8.08 9.14006 8.08H18.5001C19.7831 8.08 20.8401 7.02307 20.8401 5.74V3.4H24.7401C25.1808 3.4 25.5201 3.73927 25.5201 4.18V13.54H19.2801C17.997 13.54 16.9401 14.5969 16.9401 15.88V32.26H2.90006C2.45934 32.26 2.12006 31.9207 2.12006 31.48V4.18C2.12006 3.73927 2.45934 3.4 2.90006 3.4ZM8.36006 3.4H11.6263C11.9525 4.30148 12.8123 4.96 13.8201 4.96C14.8278 4.96 15.6876 4.30148 16.0138 3.4H19.2801V5.74C19.2801 6.18072 18.9408 6.52 18.5001 6.52H9.14006C8.69934 6.52 8.36006 6.18072 8.36006 5.74V3.4ZM9.14006 11.2V15.88H7.58006V13.54H6.02006V15.88H4.46006V17.44H15.3801V15.88H13.8201V12.76H12.2601V15.88H10.7001V11.2H9.14006ZM19.2801 15.1H26.1538H26.4707H33.3201C33.7608 15.1 34.1001 15.4393 34.1001 15.88V33.82C34.1001 34.2607 33.7608 34.6 33.3201 34.6H19.2801C18.8393 34.6 18.5001 34.2607 18.5001 33.82V33.1862C18.5217 33.0817 18.5217 32.9739 18.5001 32.8694V15.88C18.5001 15.4393 18.8393 15.1 19.2801 15.1ZM20.6938 16.66C20.5132 16.6945 20.3505 16.7916 20.2346 16.9343C20.1186 17.0771 20.0568 17.2561 20.0601 17.44V20.56C20.0601 20.7669 20.1423 20.9652 20.2885 21.1115C20.4348 21.2578 20.6332 21.34 20.8401 21.34H31.7601C31.9669 21.34 32.1653 21.2578 32.3116 21.1115C32.4579 20.9652 32.54 20.7669 32.5401 20.56V17.44C32.54 17.2331 32.4579 17.0347 32.3116 16.8885C32.1653 16.7422 31.9669 16.66 31.7601 16.66H20.8401C20.8157 16.6589 20.7913 16.6589 20.7669 16.66C20.7426 16.6589 20.7182 16.6589 20.6938 16.66ZM21.6201 18.22H30.9801V19.78H21.6201V18.22ZM9.14006 20.56C6.56461 20.56 4.46006 22.6645 4.46006 25.24C4.46006 27.8154 6.56461 29.92 9.14006 29.92C11.7155 29.92 13.8201 27.8154 13.8201 25.24C13.8201 22.6645 11.7155 20.56 9.14006 20.56ZM9.14006 22.12V25.24H12.2601C12.2601 26.9724 10.8724 28.36 9.14006 28.36C7.40769 28.36 6.02006 26.9724 6.02006 25.24C6.02006 23.5076 7.40769 22.12 9.14006 22.12ZM20.8401 22.9C20.4095 22.9 20.0601 23.2494 20.0601 23.68V24.46C20.0601 24.8906 20.4095 25.24 20.8401 25.24H22.4001C22.8306 25.24 23.1801 24.8906 23.1801 24.46V23.68C23.1801 23.2494 22.8306 22.9 22.4001 22.9H20.8401ZM25.5201 22.9C25.0895 22.9 24.7401 23.2494 24.7401 23.68V24.46C24.7401 24.8906 25.0895 25.24 25.5201 25.24H27.0801C27.5106 25.24 27.8601 24.8906 27.8601 24.46V23.68C27.8601 23.2494 27.5106 22.9 27.0801 22.9H25.5201ZM30.2001 22.9C29.7695 22.9 29.4201 23.2494 29.4201 23.68V24.46C29.4201 24.8906 29.7695 25.24 30.2001 25.24H31.7601C32.1906 25.24 32.5401 24.8906 32.5401 24.46V23.68C32.5401 23.2494 32.1906 22.9 31.7601 22.9H30.2001ZM20.8401 26.8C20.4095 26.8 20.0601 27.1494 20.0601 27.58V28.36C20.0601 28.7906 20.4095 29.14 20.8401 29.14H22.4001C22.8306 29.14 23.1801 28.7906 23.1801 28.36V27.58C23.1801 27.1494 22.8306 26.8 22.4001 26.8H20.8401ZM25.5201 26.8C25.0895 26.8 24.7401 27.1494 24.7401 27.58V28.36C24.7401 28.7906 25.0895 29.14 25.5201 29.14H27.0801C27.5106 29.14 27.8601 28.7906 27.8601 28.36V27.58C27.8601 27.1494 27.5106 26.8 27.0801 26.8H25.5201ZM30.2001 26.8C29.7695 26.8 29.4201 27.1494 29.4201 27.58V28.36C29.4201 28.7906 29.7695 29.14 30.2001 29.14H31.7601C32.1906 29.14 32.5401 28.7906 32.5401 28.36V27.58C32.5401 27.1494 32.1906 26.8 31.7601 26.8H30.2001ZM20.8401 30.7C20.4095 30.7 20.0601 31.0494 20.0601 31.48V32.26C20.0601 32.6906 20.4095 33.04 20.8401 33.04H22.4001C22.8306 33.04 23.1801 32.6906 23.1801 32.26V31.48C23.1801 31.0494 22.8306 30.7 22.4001 30.7H20.8401ZM25.5201 30.7C25.0895 30.7 24.7401 31.0494 24.7401 31.48V32.26C24.7401 32.6906 25.0895 33.04 25.5201 33.04H27.0801C27.5106 33.04 27.8601 32.6906 27.8601 32.26V31.48C27.8601 31.0494 27.5106 30.7 27.0801 30.7H25.5201ZM30.2001 30.7C29.7695 30.7 29.4201 31.0494 29.4201 31.48V32.26C29.4201 32.6906 29.7695 33.04 30.2001 33.04H31.7601C32.1906 33.04 32.5401 32.6906 32.5401 32.26V31.48C32.5401 31.0494 32.1906 30.7 31.7601 30.7H30.2001Z" fill="#BFBFBF"/>
</svg>
