<svg width="17" height="21" viewBox="0 0 17 21" fill="none" xmlns="http://www.w3.org/2000/svg">
<path d="M0.787598 16.6612H16.1688" stroke="#091E46" stroke-linecap="round" stroke-linejoin="round"/>
<path d="M1.74854 9.9319C1.74854 6.21542 4.76134 3.20261 8.47783 3.20261V3.20261C12.1943 3.20261 15.2071 6.21541 15.2071 9.9319V16.6612H1.74854V9.9319Z" stroke="#091E46" stroke-linecap="round" stroke-linejoin="round"/>
<path d="M6.81262 16.6611V16.1611C6.63413 16.1611 6.46918 16.2563 6.37981 16.4108L6.81262 16.6611ZM10.1435 16.6611L10.5763 16.4108C10.487 16.2563 10.322 16.1611 10.1435 16.1611V16.6611ZM7.05542 17.6224C7.05542 17.3625 7.12468 17.1202 7.24542 16.9115L6.37981 16.4108C6.1734 16.7676 6.05542 17.182 6.05542 17.6224H7.05542ZM8.47808 19.0451C7.69236 19.0451 7.05542 18.4081 7.05542 17.6224H6.05542C6.05542 18.9604 7.14008 20.0451 8.47808 20.0451V19.0451ZM9.90073 17.6224C9.90073 18.4081 9.26379 19.0451 8.47808 19.0451V20.0451C9.81607 20.0451 10.9007 18.9604 10.9007 17.6224H9.90073ZM9.71073 16.9115C9.83147 17.1202 9.90073 17.3625 9.90073 17.6224H10.9007C10.9007 17.182 10.7828 16.7676 10.5763 16.4108L9.71073 16.9115ZM10.1435 16.1611H6.81262V17.1611H10.1435V16.1611Z" fill="#091E46"/>
<circle cx="12.457" cy="3.3094" r="3.04421" fill="#FA5F1C"/>
</svg>
