<svg width="33" height="33" viewBox="0 0 33 33" fill="none" xmlns="http://www.w3.org/2000/svg">
<path d="M20.6535 29.8633H20.4801C14.5601 29.8633 11.7068 27.53 11.2135 22.3033C11.1601 21.7566 11.5601 21.2633 12.1201 21.21C12.6535 21.1566 13.1601 21.57 13.2135 22.1166C13.6001 26.3033 15.5735 27.8633 20.4935 27.8633H20.6668C26.0935 27.8633 28.0135 25.9433 28.0135 20.5166V11.8233C28.0135 6.39662 26.0935 4.47662 20.6668 4.47662H20.4935C15.5468 4.47662 13.5735 6.06329 13.2135 10.33C13.1468 10.8766 12.6801 11.29 12.1201 11.2366C11.5601 11.1966 11.1601 10.7033 11.2001 10.1566C11.6535 4.84996 14.5201 2.47662 20.4801 2.47662H20.6535C27.2001 2.47662 30.0001 5.27662 30.0001 11.8233V20.5166C30.0001 27.0633 27.2001 29.8633 20.6535 29.8633Z" fill="#EF4444"/>
<path d="M20.3335 17.1699H5.16016C4.61349 17.1699 4.16016 16.7166 4.16016 16.1699C4.16016 15.6233 4.61349 15.1699 5.16016 15.1699H20.3335C20.8802 15.1699 21.3335 15.6233 21.3335 16.1699C21.3335 16.7166 20.8802 17.1699 20.3335 17.1699Z" fill="#EF4444"/>
<path d="M8.13356 21.6365C7.88023 21.6365 7.62689 21.5432 7.42689 21.3432L2.96023 16.8765C2.57356 16.4899 2.57356 15.8499 2.96023 15.4632L7.42689 10.9965C7.81356 10.6099 8.45356 10.6099 8.84023 10.9965C9.22689 11.3832 9.22689 12.0232 8.84023 12.4099L5.08023 16.1699L8.84023 19.9299C9.22689 20.3165 9.22689 20.9565 8.84023 21.3432C8.65356 21.5432 8.38689 21.6365 8.13356 21.6365Z" fill="#EF4444"/>
</svg>
