<svg width="32" height="33" viewBox="0 0 32 33" fill="none" xmlns="http://www.w3.org/2000/svg">
<path d="M25.9166 0.916687H6.08329C4.5804 0.916687 3.13906 1.51371 2.07635 2.57642C1.01365 3.63912 0.416626 5.08046 0.416626 6.58335V16.5C0.416626 16.8757 0.565881 17.2361 0.831558 17.5018C1.09723 17.7674 1.45757 17.9167 1.83329 17.9167H8.91663V30.6667C8.91596 30.9376 8.99301 31.2031 9.13864 31.4316C9.28428 31.6601 9.49239 31.842 9.73829 31.9559C9.98478 32.0693 10.2587 32.1096 10.5274 32.0719C10.7961 32.0343 11.0483 31.9202 11.2541 31.7434L15.2916 28.2867L19.3291 31.7434C19.5857 31.9628 19.9123 32.0834 20.25 32.0834C20.5876 32.0834 20.9142 31.9628 21.1708 31.7434L25.2083 28.2867L29.2458 31.7434C29.5024 31.9628 29.829 32.0834 30.1666 32.0834C30.3716 32.0819 30.5741 32.0385 30.7616 31.9559C31.0075 31.842 31.2156 31.6601 31.3613 31.4316C31.5069 31.2031 31.584 30.9376 31.5833 30.6667V6.58335C31.5833 5.08046 30.9863 3.63912 29.9236 2.57642C28.8609 1.51371 27.4195 0.916687 25.9166 0.916687ZM3.24996 15.0834V6.58335C3.24996 5.83191 3.54847 5.11124 4.07982 4.57988C4.61118 4.04853 5.33185 3.75002 6.08329 3.75002C6.83474 3.75002 7.55541 4.04853 8.08676 4.57988C8.61812 5.11124 8.91663 5.83191 8.91663 6.58335V15.0834H3.24996ZM28.75 27.5925L26.1291 25.34C25.8725 25.1205 25.546 24.9999 25.2083 24.9999C24.8706 24.9999 24.5441 25.1205 24.2875 25.34L20.25 28.7967L16.2125 25.34C15.9559 25.1205 15.6293 24.9999 15.2916 24.9999C14.954 24.9999 14.6274 25.1205 14.3708 25.34L11.75 27.5925V6.58335C11.7482 5.58812 11.4843 4.6109 10.985 3.75002H25.9166C26.6681 3.75002 27.3887 4.04853 27.9201 4.57988C28.4515 5.11124 28.75 5.83191 28.75 6.58335V27.5925ZM25.9166 8.00002C25.9166 8.37574 25.7674 8.73608 25.5017 9.00175C25.236 9.26743 24.8757 9.41669 24.5 9.41669H16C15.6242 9.41669 15.2639 9.26743 14.9982 9.00175C14.7326 8.73608 14.5833 8.37574 14.5833 8.00002C14.5833 7.6243 14.7326 7.26396 14.9982 6.99829C15.2639 6.73261 15.6242 6.58335 16 6.58335H24.5C24.8757 6.58335 25.236 6.73261 25.5017 6.99829C25.7674 7.26396 25.9166 7.6243 25.9166 8.00002ZM25.9166 13.6667C25.9166 14.0424 25.7674 14.4027 25.5017 14.6684C25.236 14.9341 24.8757 15.0834 24.5 15.0834H16C15.6242 15.0834 15.2639 14.9341 14.9982 14.6684C14.7326 14.4027 14.5833 14.0424 14.5833 13.6667C14.5833 13.291 14.7326 12.9306 14.9982 12.665C15.2639 12.3993 15.6242 12.25 16 12.25H24.5C24.8757 12.25 25.236 12.3993 25.5017 12.665C25.7674 12.9306 25.9166 13.291 25.9166 13.6667ZM25.9166 19.3334C25.9166 19.7091 25.7674 20.0694 25.5017 20.3351C25.236 20.6008 24.8757 20.75 24.5 20.75H16C15.6242 20.75 15.2639 20.6008 14.9982 20.3351C14.7326 20.0694 14.5833 19.7091 14.5833 19.3334C14.5833 18.9576 14.7326 18.5973 14.9982 18.3316C15.2639 18.0659 15.6242 17.9167 16 17.9167H24.5C24.8757 17.9167 25.236 18.0659 25.5017 18.3316C25.7674 18.5973 25.9166 18.9576 25.9166 19.3334Z" fill="#BFBFBF"/>
</svg>
