<svg width="32" height="34" viewBox="0 0 32 34" fill="none" xmlns="http://www.w3.org/2000/svg">
<path d="M8.00006 4.625H4.75006C3.88811 4.625 3.06146 4.96741 2.45196 5.5769C1.84247 6.1864 1.50006 7.01305 1.50006 7.875V27.375C1.50006 28.237 1.84247 29.0636 2.45196 29.6731C3.06146 30.2826 3.88811 30.625 4.75006 30.625H14.0077" stroke="#BFBFBF" stroke-width="2" stroke-linecap="round" stroke-linejoin="round"/>
<path d="M24.2501 19.25V25.75H30.7501" stroke="#BFBFBF" stroke-width="2" stroke-linecap="round" stroke-linejoin="round"/>
<path d="M24.2501 14.375V7.875C24.2501 7.01305 23.9077 6.1864 23.2982 5.5769C22.6887 4.96741 21.862 4.625 21.0001 4.625H17.7501" stroke="#BFBFBF" stroke-width="2" stroke-linecap="round" stroke-linejoin="round"/>
<path d="M14.5001 1.375H11.2501C9.45514 1.375 8.00006 2.83007 8.00006 4.625C8.00006 6.41993 9.45514 7.875 11.2501 7.875H14.5001C16.295 7.875 17.7501 6.41993 17.7501 4.625C17.7501 2.83007 16.295 1.375 14.5001 1.375Z" stroke="#BFBFBF" stroke-width="2" stroke-linecap="round" stroke-linejoin="round"/>
<path d="M24.2501 32.25C27.8399 32.25 30.7501 29.3399 30.7501 25.75C30.7501 22.1601 27.8399 19.25 24.2501 19.25C20.6602 19.25 17.7501 22.1601 17.7501 25.75C17.7501 29.3399 20.6602 32.25 24.2501 32.25Z" stroke="#BFBFBF" stroke-width="2" stroke-linecap="round" stroke-linejoin="round"/>
<path d="M8.00006 14.375H14.5001" stroke="#BFBFBF" stroke-width="2" stroke-linecap="round" stroke-linejoin="round"/>
<path d="M8.00006 20.875H12.8751" stroke="#BFBFBF" stroke-width="2" stroke-linecap="round" stroke-linejoin="round"/>
</svg>
