<svg width="33" height="33" viewBox="0 0 33 33" fill="none" xmlns="http://www.w3.org/2000/svg">
<path d="M26.6525 20.5002C26.475 20.9024 26.422 21.3485 26.5005 21.781C26.5789 22.2135 26.7851 22.6127 27.0925 22.9269L27.1725 23.0069C27.4204 23.2546 27.6171 23.5487 27.7513 23.8724C27.8855 24.1961 27.9546 24.5431 27.9546 24.8936C27.9546 25.244 27.8855 25.591 27.7513 25.9147C27.6171 26.2385 27.4204 26.5326 27.1725 26.7802C26.9248 27.0282 26.6307 27.2249 26.307 27.3591C25.9833 27.4932 25.6362 27.5623 25.2858 27.5623C24.9354 27.5623 24.5884 27.4932 24.2646 27.3591C23.9409 27.2249 23.6468 27.0282 23.3991 26.7802L23.3191 26.7002C23.0049 26.3928 22.6058 26.1866 22.1733 26.1082C21.7407 26.0298 21.2946 26.0827 20.8925 26.2602C20.4981 26.4292 20.1618 26.7099 19.9249 27.0676C19.688 27.4253 19.5609 27.8445 19.5591 28.2736V28.5002C19.5591 29.2075 19.2782 29.8857 18.7781 30.3858C18.278 30.8859 17.5997 31.1669 16.8925 31.1669C16.1852 31.1669 15.507 30.8859 15.0069 30.3858C14.5068 29.8857 14.2258 29.2075 14.2258 28.5002V28.3802C14.2155 27.9389 14.0726 27.5109 13.8158 27.1518C13.559 26.7928 13.2001 26.5193 12.7858 26.3669C12.3837 26.1894 11.9375 26.1365 11.505 26.2149C11.0725 26.2933 10.6734 26.4995 10.3591 26.8069L10.2791 26.8869C10.0315 27.1348 9.73738 27.3315 9.41365 27.4657C9.08992 27.5999 8.74291 27.669 8.39247 27.669C8.04203 27.669 7.69503 27.5999 7.3713 27.4657C7.04757 27.3315 6.75347 27.1348 6.50581 26.8869C6.25787 26.6392 6.06118 26.3451 5.92698 26.0214C5.79278 25.6977 5.72371 25.3507 5.72371 25.0002C5.72371 24.6498 5.79278 24.3028 5.92698 23.9791C6.06118 23.6553 6.25787 23.3612 6.50581 23.1136L6.58581 23.0336C6.89319 22.7193 7.09939 22.3202 7.17781 21.8877C7.25624 21.4551 7.20329 21.009 7.02581 20.6069C6.85679 20.2125 6.57615 19.8762 6.21843 19.6393C5.86071 19.4024 5.44152 19.2753 5.01247 19.2736H4.78581C4.07856 19.2736 3.40029 18.9926 2.90019 18.4925C2.40009 17.9924 2.11914 17.3141 2.11914 16.6069C2.11914 15.8996 2.40009 15.2214 2.90019 14.7213C3.40029 14.2212 4.07856 13.9402 4.78581 13.9402H4.90581C5.34713 13.9299 5.77515 13.787 6.13421 13.5302C6.49327 13.2734 6.76676 12.9145 6.91914 12.5002C7.09663 12.0981 7.14957 11.652 7.07115 11.2194C6.99272 10.7869 6.78652 10.3878 6.47914 10.0736L6.39914 9.99356C6.1512 9.7459 5.95451 9.45179 5.82031 9.12806C5.68612 8.80434 5.61704 8.45733 5.61704 8.10689C5.61704 7.75645 5.68612 7.40944 5.82031 7.08572C5.95451 6.76199 6.1512 6.46789 6.39914 6.22022C6.6468 5.97229 6.9409 5.7756 7.26463 5.6414C7.58836 5.5072 7.93537 5.43813 8.28581 5.43813C8.63625 5.43813 8.98325 5.5072 9.30698 5.6414C9.63071 5.7756 9.92481 5.97229 10.1725 6.22022L10.2525 6.30022C10.5667 6.60761 10.9658 6.8138 11.3984 6.89223C11.8309 6.97066 12.277 6.91771 12.6791 6.74022H12.7858C13.1802 6.57121 13.5165 6.29056 13.7534 5.93284C13.9903 5.57512 14.1174 5.15594 14.1191 4.72689V4.50022C14.1191 3.79298 14.4001 3.1147 14.9002 2.61461C15.4003 2.11451 16.0786 1.83356 16.7858 1.83356C17.4931 1.83356 18.1713 2.11451 18.6714 2.61461C19.1715 3.1147 19.4525 3.79298 19.4525 4.50022V4.62022C19.4542 5.04927 19.5813 5.46846 19.8182 5.82618C20.0551 6.1839 20.3914 6.46454 20.7858 6.63356C21.188 6.81104 21.6341 6.86399 22.0666 6.78556C22.4991 6.70714 22.8982 6.50094 23.2125 6.19356L23.2925 6.11356C23.5401 5.86562 23.8342 5.66893 24.158 5.53473C24.4817 5.40053 24.8287 5.33146 25.1791 5.33146C25.5296 5.33146 25.8766 5.40053 26.2003 5.53473C26.524 5.66893 26.8181 5.86562 27.0658 6.11356C27.3137 6.36122 27.5104 6.65532 27.6446 6.97905C27.7788 7.30278 27.8479 7.64978 27.8479 8.00022C27.8479 8.35067 27.7788 8.69767 27.6446 9.0214C27.5104 9.34513 27.3137 9.63923 27.0658 9.88689L26.9858 9.96689C26.6784 10.2811 26.4722 10.6802 26.3938 11.1128C26.3154 11.5453 26.3683 11.9914 26.5458 12.3936V12.5002C26.7148 12.8946 26.9955 13.2309 27.3532 13.4678C27.7109 13.7047 28.1301 13.8318 28.5591 13.8336H28.7858C29.493 13.8336 30.1713 14.1145 30.6714 14.6146C31.1715 15.1147 31.4525 15.793 31.4525 16.5002C31.4525 17.2075 31.1715 17.8857 30.6714 18.3858C30.1713 18.8859 29.493 19.1669 28.7858 19.1669H28.6658C28.2368 19.1686 27.8176 19.2957 27.4599 19.5326C27.1021 19.7695 26.8215 20.1059 26.6525 20.5002V20.5002Z" stroke="#BFBFBF" stroke-width="2.70237" stroke-linecap="round" stroke-linejoin="round"/>
</svg>
