<svg width="20" height="17" viewBox="0 0 20 17" fill="none" xmlns="http://www.w3.org/2000/svg">
<path d="M10.3134 0.700841C10.0457 0.433053 9.61149 0.433053 9.3437 0.700841L5.68656 4.35798C5.41877 4.62577 5.41877 5.05994 5.68656 5.32773C5.95434 5.59552 6.38851 5.59552 6.6563 5.32773L9.14286 2.84118V12.1571C9.14286 12.5359 9.44986 12.8429 9.82857 12.8429C10.2073 12.8429 10.5143 12.5359 10.5143 12.1571V2.84118L13.0008 5.32773C13.2686 5.59552 13.7028 5.59552 13.9706 5.32773C14.2384 5.05994 14.2384 4.62577 13.9706 4.35798L10.3134 0.700841Z" fill="#B3C0CE"/>
<path d="M1.37143 8.5C1.37143 8.12129 1.06442 7.81429 0.685715 7.81429C0.307005 7.81429 1.1831e-07 8.12129 1.1831e-07 8.5V11.7244C-4.48677e-06 12.3427 -8.2033e-06 12.8415 0.0276893 13.2474C0.0561699 13.6649 0.116214 14.034 0.260985 14.3835C0.608964 15.2236 1.27642 15.891 2.11651 16.239C2.46602 16.3838 2.83513 16.4438 3.25255 16.4723C3.6585 16.5 4.1573 16.5 4.77564 16.5H14.8815C15.4998 16.5 15.9986 16.5 16.4046 16.4723C16.822 16.4438 17.1911 16.3838 17.5406 16.239C18.3807 15.891 19.0482 15.2236 19.3962 14.3835C19.5409 14.034 19.601 13.6649 19.6295 13.2474C19.6572 12.8415 19.6571 12.3427 19.6571 11.7244V8.5C19.6571 8.12129 19.3501 7.81429 18.9714 7.81429C18.5927 7.81429 18.2857 8.12129 18.2857 8.5V11.7C18.2857 12.3484 18.2853 12.8003 18.2612 13.1541C18.2375 13.5017 18.1931 13.7041 18.1291 13.8587C17.9203 14.3627 17.5199 14.7632 17.0158 14.972C16.8613 15.036 16.6588 15.0803 16.3112 15.1041C15.9575 15.1282 15.5055 15.1286 14.8571 15.1286H4.8C4.15161 15.1286 3.69966 15.1282 3.34591 15.1041C2.99831 15.0803 2.79589 15.036 2.64134 14.972C2.13728 14.7632 1.73681 14.3627 1.52802 13.8587C1.464 13.7041 1.41965 13.5017 1.39594 13.1541C1.3718 12.8003 1.37143 12.3484 1.37143 11.7V8.5Z" fill="#B3C0CE"/>
</svg>
