<svg width="61" height="60" viewBox="0 0 61 60" fill="none" xmlns="http://www.w3.org/2000/svg">
<path d="M52.3027 1.15606C48.2401 2.01387 45.7619 5.04004 45.0828 9.98438C44.8445 11.6881 44.225 17.1209 44.094 18.6816C43.7246 22.7801 43.3553 26.7713 43.3076 27.0811C43.2719 27.2717 43.2004 28.1295 43.1289 28.9873C43.0693 29.8332 42.9264 31.5012 42.8311 32.6807C42.7238 33.8602 42.5928 35.4924 42.5332 36.3145C42.3068 39.1381 42.0805 40.4844 41.7111 41.2469C41.2227 42.2834 40.5197 43.0221 39.5785 43.4867C38.8518 43.8441 38.6969 43.8799 37.6484 43.8799C36.6 43.8799 36.4451 43.8441 35.7184 43.4867C33.7883 42.5336 32.9662 40.6988 33.2402 37.9109C33.4428 35.6711 33.0615 34.2533 31.9297 33.05C31.5484 32.6449 31.06 32.2875 30.5834 32.073C29.9162 31.7633 29.7256 31.7275 28.5342 31.7275C27.3904 31.7275 27.1522 31.7633 26.6279 32.0135C25.782 32.4305 24.8647 33.3479 24.4834 34.1342C24.0188 35.123 23.8639 36.0523 23.5899 39.3525C23.4588 40.9967 23.2682 42.6527 23.1729 43.034C22.601 45.2143 21.1356 46.5248 19.1102 46.6559C17.5256 46.7512 16.0602 46.1078 15.2024 44.9283C14.285 43.6654 14.1658 42.5455 14.5233 38.5781C14.6543 37.0412 14.8211 35.135 14.8807 34.3486C14.9522 33.5623 15.1428 31.3582 15.3096 29.4639C15.4764 27.5576 15.6908 25.0914 15.7861 23.9834C16.2627 18.2051 16.4295 17.2996 17.1563 16.2393C19.0863 13.4275 23.2086 13.6897 24.7574 16.7158C25.0672 17.3354 25.377 18.8246 25.377 19.7182C25.377 21.1836 25.9488 22.5775 26.9139 23.483C27.7359 24.2574 28.415 24.5314 29.6779 24.6029C30.9885 24.6863 31.7391 24.5076 32.6445 23.9C34.0266 22.9826 34.6699 21.5291 34.9082 18.8604C35.2537 14.8453 35.3967 13.1535 35.5039 11.8906C36.0639 5.34981 35.9805 4.34903 34.8606 3.09805C34.6223 2.83594 34.1457 2.50235 33.8002 2.34747C33.1926 2.06153 33.133 2.06153 29.4873 2.07344C23.018 2.09727 20.2063 2.7168 15.5121 5.15918C10.0674 7.99473 5.93321 12.2481 3.2168 17.7881C2.03731 20.1947 1.40587 22.0533 0.810163 24.877C0.643366 25.699 0.381257 27.8912 0.285944 29.2852C0.166803 31.2033 0.548054 34.7895 1.14376 37.1604C3.60997 47.1324 10.4248 54.6621 19.8012 57.7598C27.4858 60.3094 35.6707 59.666 42.7358 55.9727C45.3807 54.5906 47.5848 52.9346 49.7412 50.7066C52.0406 48.3477 53.4703 46.3104 54.9238 43.3199C56.9135 39.2453 57.9977 34.4201 58.6768 26.6641C58.9151 23.8285 59.1653 20.9453 59.3916 18.4434C59.4988 17.2996 59.6537 15.441 59.749 14.333C60.166 9.22188 60.4043 6.50547 60.5354 5.50469C60.6664 4.45625 60.6545 4.4086 60.3686 3.83672C59.6895 2.51426 58.1645 1.60879 55.8651 1.15606C54.4235 0.882034 53.6252 0.882034 52.3027 1.15606Z" fill="#810EA8"/>
</svg>
